REM DIRINDEX 1\4,1\2\5,1\2\6,1\3\7,1\3\8,1\3\9,1\3\10
REM DIRNAME cjc107,folder01,folder02,folder03,folder04,folder05,folder06,folder07,folder08,folder09
TITLE ""
FILE "DISC2Track02.mp3" MP3
  TRACK 01 AUDIO
    TITLE "0:"
    INDEX 01 00:00:00
  TRACK 02 AUDIO
    TITLE "7:cjc107_1204"
    INDEX 01 00:00:01
  TRACK 03 AUDIO
    TITLE "0:"
    INDEX 01 00:02:71
  TRACK 04 AUDIO
    TITLE "8:cjc107_1205"
    INDEX 01 00:04:03
  TRACK 05 AUDIO
    TITLE "0:"
    INDEX 01 00:05:44
  TRACK 06 AUDIO
    TITLE "9:cjc107_1206"
    INDEX 01 00:05:56
  TRACK 07 AUDIO
    TITLE "0:"
    INDEX 01 00:07:11
  TRACK 08 AUDIO
    TITLE "8:cjc107_1207"
    INDEX 01 00:07:56
  TRACK 09 AUDIO
    TITLE "0:"
    INDEX 01 00:09:49
  TRACK 10 AUDIO
    TITLE "9:cjc107_1208"
    INDEX 01 00:09:57
  TRACK 11 AUDIO
    TITLE "0:"
    INDEX 01 00:12:18
  TRACK 12 AUDIO
    TITLE "8:cjc107_1209"
    INDEX 01 00:12:71
  TRACK 13 AUDIO
    TITLE "0:"
    INDEX 01 00:14:47
  TRACK 14 AUDIO
    TITLE "9:cjc107_1210"
    INDEX 01 00:14:56
  TRACK 15 AUDIO
    TITLE "0:"
    INDEX 01 00:16:32
  TRACK 16 AUDIO
    TITLE "8:cjc107_1211"
    INDEX 01 00:17:08
  TRACK 17 AUDIO
    TITLE "0:"
    INDEX 01 00:18:17
  TRACK 18 AUDIO
    TITLE "9:cjc107_1212"
    INDEX 01 00:18:35
  TRACK 19 AUDIO
    TITLE "0:"
    INDEX 01 00:19:48
  TRACK 20 AUDIO
    TITLE "8:cjc107_1213"
    INDEX 01 00:20:24
  TRACK 21 AUDIO
    TITLE "0:"
    INDEX 01 00:21:39
  TRACK 22 AUDIO
    TITLE "9:cjc107_1214"
    INDEX 01 00:21:55
  TRACK 23 AUDIO
    TITLE "0:"
    INDEX 01 00:22:66
  TRACK 24 AUDIO
    TITLE "8:cjc107_1215"
    INDEX 01 00:23:48
  TRACK 25 AUDIO
    TITLE "0:"
    INDEX 01 00:24:69
  TRACK 26 AUDIO
    TITLE "9:cjc107_1216"
    INDEX 01 00:25:03
  TRACK 27 AUDIO
    TITLE "0:"
    INDEX 01 00:27:30
  TRACK 28 AUDIO
    TITLE "8:cjc107_1217"
    INDEX 01 00:28:08
  TRACK 29 AUDIO
    TITLE "0:"
    INDEX 01 00:29:34
  TRACK 30 AUDIO
    TITLE "9:cjc107_1218"
    INDEX 01 00:29:42
  TRACK 31 AUDIO
    TITLE "0:"
    INDEX 01 00:31:08
  TRACK 32 AUDIO
    TITLE "8:cjc107_1219"
    INDEX 01 00:31:65
  TRACK 33 AUDIO
    TITLE "0:"
    INDEX 01 00:33:05
  TRACK 34 AUDIO
    TITLE "9:cjc107_1220"
    INDEX 01 00:33:09
  TRACK 35 AUDIO
    TITLE "0:"
    INDEX 01 00:35:29
  TRACK 36 AUDIO
    TITLE "8:cjc107_1221"
    INDEX 01 00:36:05
  TRACK 37 AUDIO
    TITLE "0:"
    INDEX 01 00:37:30
  TRACK 38 AUDIO
    TITLE "9:cjc107_1222"
    INDEX 01 00:37:42
  TRACK 39 AUDIO
    TITLE "0:"
    INDEX 01 00:39:15
  TRACK 40 AUDIO
    TITLE "8:cjc107_1223"
    INDEX 01 00:39:60
  TRACK 41 AUDIO
    TITLE "0:"
    INDEX 01 00:41:36
  TRACK 42 AUDIO
    TITLE "9:cjc107_1224"
    INDEX 01 00:41:49
  TRACK 43 AUDIO
    TITLE "0:"
    INDEX 01 00:42:74
  TRACK 44 AUDIO
    TITLE "8:cjc107_1225"
    INDEX 01 00:43:48
  TRACK 45 AUDIO
    TITLE "0:"
    INDEX 01 00:44:73
  TRACK 46 AUDIO
    TITLE "9:cjc107_1226"
    INDEX 01 00:45:00
  TRACK 47 AUDIO
    TITLE "0:"
    INDEX 01 00:46:23
  TRACK 48 AUDIO
    TITLE "8:cjc107_1227"
    INDEX 01 00:46:74
  TRACK 49 AUDIO
    TITLE "0:"
    INDEX 01 00:48:42
  TRACK 50 AUDIO
    TITLE "9:cjc107_1228"
    INDEX 01 00:48:51
  TRACK 51 AUDIO
    TITLE "0:"
    INDEX 01 00:51:28
  TRACK 52 AUDIO
    TITLE "8:cjc107_1229"
    INDEX 01 00:51:73
  TRACK 53 AUDIO
    TITLE "0:"
    INDEX 01 00:53:62
  TRACK 54 AUDIO
    TITLE "9:cjc107_1230"
    INDEX 01 00:53:64
  TRACK 55 AUDIO
    TITLE "0:"
    INDEX 01 00:55:10
  TRACK 56 AUDIO
    TITLE "8:cjc107_1231"
    INDEX 01 00:55:55
  TRACK 57 AUDIO
    TITLE "0:"
    INDEX 01 00:56:72
  TRACK 58 AUDIO
    TITLE "9:cjc107_1232"
    INDEX 01 00:57:11
  TRACK 59 AUDIO
    TITLE "0:"
    INDEX 01 00:59:38
  TRACK 60 AUDIO
    TITLE "10:cjc107_1233"
    INDEX 01 01:01:15
  TRACK 61 AUDIO
    TITLE "10:cjc107_1234"
    INDEX 01 01:03:61
  TRACK 62 AUDIO
    TITLE "10:cjc107_1235"
    INDEX 01 01:06:49
  TRACK 63 AUDIO
    TITLE "10:cjc107_1236"
    INDEX 01 01:13:08
  TRACK 64 AUDIO
    TITLE "10:cjc107_1237"
    INDEX 01 01:21:41
  TRACK 65 AUDIO
    TITLE "10:cjc107_1238"
    INDEX 01 01:26:42
  TRACK 66 AUDIO
    TITLE "10:cjc107_1239"
    INDEX 01 01:30:28
  TRACK 67 AUDIO
    TITLE "10:cjc107_1240"
    INDEX 01 01:36:29
  TRACK 68 AUDIO
    TITLE "0:"
    INDEX 01 01:43:51
